<svg width="32" height="32" viewBox="0 0 32 32" fill="none" xmlns="http://www.w3.org/2000/svg"><rect width="32" height="32" rx="10" fill="#F5F5F6"/><path d="M11.333 18.667h2.6a.867.867 0 1 0 0-1.734h-2.6a.866.866 0 1 0 0 1.734ZM21.733 10H9.6A2.6 2.6 0 0 0 7 12.6v7.8A2.6 2.6 0 0 0 9.6 23h12.133a2.6 2.6 0 0 0 2.6-2.6v-7.8a2.6 2.6 0 0 0-2.6-2.6Zm.867 10.4a.867.867 0 0 1-.867.867H9.6a.866.866 0 0 1-.867-.867v-5.2H22.6v5.2Zm0-6.933H8.733V12.6a.866.866 0 0 1 .867-.867h12.133a.867.867 0 0 1 .867.867v.867Z" fill="#464653"/></svg>